<svg width="24" height="24" viewBox="0 0 24 24" fill="none" xmlns="http://www.w3.org/2000/svg">
<mask id="mask0_9_238" style="mask-type:alpha" maskUnits="userSpaceOnUse" x="0" y="0" width="24" height="24">
<rect width="24" height="24" fill="#D9D9D9"/>
</mask>
<g mask="url(#mask0_9_238)">
<path d="M13 16.9686C13.7333 16.6476 14.4708 16.4068 15.2125 16.2464C15.9542 16.0859 16.7167 16.0056 17.5 16.0056C18.1 16.0056 18.6875 16.0515 19.2625 16.1432C19.8375 16.2349 20.4167 16.3725 21 16.5559V7.47626C20.45 7.26226 19.8792 7.10176 19.2875 6.99477C18.6958 6.88777 18.1 6.83427 17.5 6.83427C16.7167 6.83427 15.9417 6.92598 15.175 7.10941C14.4083 7.29283 13.6833 7.56797 13 7.93483V16.9686ZM12 19.1926C11.7667 19.1926 11.5458 19.1659 11.3375 19.1124C11.1292 19.0589 10.9333 18.9863 10.75 18.8946C10.1 18.543 9.41667 18.2793 8.7 18.1035C7.98333 17.9278 7.25 17.8399 6.5 17.8399C5.8 17.8399 5.1125 17.9239 4.4375 18.0921C3.7625 18.2602 3.11667 18.4971 2.5 18.8029C2.15 18.971 1.8125 18.9634 1.4875 18.7799C1.1625 18.5965 1 18.329 1 17.9774V6.92598C1 6.75784 1.04583 6.59734 1.1375 6.44449C1.22917 6.29163 1.36667 6.17699 1.55 6.10056C2.33333 5.74899 3.1375 5.47767 3.9625 5.2866C4.7875 5.09553 5.63333 5 6.5 5C7.46667 5 8.4125 5.11464 9.3375 5.34393C10.2625 5.57321 11.15 5.91713 12 6.3757C12.85 5.91713 13.7375 5.57321 14.6625 5.34393C15.5875 5.11464 16.5333 5 17.5 5C18.3667 5 19.2125 5.09553 20.0375 5.2866C20.8625 5.47767 21.6667 5.74899 22.45 6.10056C22.6333 6.17699 22.7708 6.29163 22.8625 6.44449C22.9542 6.59734 23 6.75784 23 6.92598V17.9774C23 18.329 22.8375 18.5965 22.5125 18.7799C22.1875 18.9634 21.85 18.971 21.5 18.8029C20.8833 18.4971 20.2375 18.2602 19.5625 18.0921C18.8875 17.9239 18.2 17.8399 17.5 17.8399C16.75 17.8399 16.0167 17.9278 15.3 18.1035C14.5833 18.2793 13.9 18.543 13.25 18.8946C13.0667 18.9863 12.8708 19.0589 12.6625 19.1124C12.4542 19.1659 12.2333 19.1926 12 19.1926ZM14 9.37931C14 9.24174 14.0542 9.10035 14.1625 8.95514C14.2708 8.80993 14.3917 8.71439 14.525 8.66853C15.0083 8.51568 15.4917 8.40104 15.975 8.32461C16.4583 8.24818 16.9667 8.20997 17.5 8.20997C17.8333 8.20997 18.1625 8.22907 18.4875 8.26729C18.8125 8.3055 19.1333 8.35518 19.45 8.41632C19.6 8.44689 19.7292 8.52332 19.8375 8.64561C19.9458 8.76789 20 8.90546 20 9.05832C20 9.31817 19.9083 9.50924 19.725 9.63152C19.5417 9.75381 19.3083 9.78438 19.025 9.72324C18.7917 9.67738 18.5458 9.64299 18.2875 9.62006C18.0292 9.59713 17.7667 9.58567 17.5 9.58567C17.0667 9.58567 16.6417 9.62388 16.225 9.70031C15.8083 9.77674 15.4083 9.87609 15.025 9.99838C14.725 10.1054 14.4792 10.0977 14.2875 9.97545C14.0958 9.85317 14 9.65445 14 9.37931ZM14 14.4235C14 14.286 14.0542 14.1446 14.1625 13.9994C14.2708 13.8542 14.3917 13.7586 14.525 13.7128C15.0083 13.5599 15.4917 13.4453 15.975 13.3688C16.4583 13.2924 16.9667 13.2542 17.5 13.2542C17.8333 13.2542 18.1625 13.2733 18.4875 13.3115C18.8125 13.3497 19.1333 13.3994 19.45 13.4606C19.6 13.4911 19.7292 13.5676 19.8375 13.6898C19.9458 13.8121 20 13.9497 20 14.1026C20 14.3624 19.9083 14.5535 19.725 14.6758C19.5417 14.798 19.3083 14.8286 19.025 14.7675C18.7917 14.7216 18.5458 14.6872 18.2875 14.6643C18.0292 14.6414 17.7667 14.6299 17.5 14.6299C17.0667 14.6299 16.6417 14.6643 16.225 14.7331C15.8083 14.8019 15.4083 14.8974 15.025 15.0197C14.725 15.1267 14.4792 15.1229 14.2875 15.0082C14.0958 14.8936 14 14.6987 14 14.4235ZM14 11.9014C14 11.7639 14.0542 11.6225 14.1625 11.4773C14.2708 11.332 14.3917 11.2365 14.525 11.1907C15.0083 11.0378 15.4917 10.9232 15.975 10.8467C16.4583 10.7703 16.9667 10.7321 17.5 10.7321C17.8333 10.7321 18.1625 10.7512 18.4875 10.7894C18.8125 10.8276 19.1333 10.8773 19.45 10.9384C19.6 10.969 19.7292 11.0454 19.8375 11.1677C19.9458 11.29 20 11.4276 20 11.5804C20 11.8403 19.9083 12.0314 19.725 12.1536C19.5417 12.2759 19.3083 12.3065 19.025 12.2454C18.7917 12.1995 18.5458 12.1651 18.2875 12.1422C18.0292 12.1192 17.7667 12.1078 17.5 12.1078C17.0667 12.1078 16.6417 12.146 16.225 12.2224C15.8083 12.2989 15.4083 12.3982 15.025 12.5205C14.725 12.6275 14.4792 12.6199 14.2875 12.4976C14.0958 12.3753 14 12.1766 14 11.9014Z" fill="#B6F829"/>
</g>
</svg>
