<svg width="238" height="13" viewBox="0 0 238 13" fill="none" xmlns="http://www.w3.org/2000/svg">
<path d="M234.879 4.20506H234.687V5.00006H234.195V2.92106H234.876C235.16 2.92106 235.373 2.97306 235.515 3.07706C235.659 3.18106 235.731 3.34006 235.731 3.55406C235.731 3.68806 235.699 3.80006 235.635 3.89006C235.571 3.97806 235.47 4.05306 235.332 4.11506L235.86 5.00006H235.305L234.879 4.20506ZM234.687 3.86606H234.894C235.004 3.86606 235.086 3.84106 235.14 3.79106C235.196 3.74106 235.224 3.66206 235.224 3.55406C235.224 3.45406 235.194 3.38106 235.134 3.33506C235.076 3.28906 234.986 3.26606 234.864 3.26606H234.687V3.86606Z" fill="#666666"/>
<path d="M7.01999 12.0001L6.51599 9.91406H3.68799L3.19799 12.0001H0.817993L3.74399 2.29806H6.52999L9.45599 12.0001H7.01999ZM4.07999 8.24806H6.12399L5.10199 3.96406L4.07999 8.24806Z" fill="#666666"/>
<path d="M14.4798 4.32806C15.1238 4.32806 15.6278 4.52406 15.9918 4.91606C16.3558 5.30806 16.5378 5.85873 16.5378 6.56806V12.0001H14.3258V6.94606C14.3258 6.57273 14.2651 6.31606 14.1438 6.17606C14.0318 6.02673 13.8591 5.95206 13.6258 5.95206C13.1778 5.95206 12.7485 6.27406 12.3378 6.91806V12.0001H10.1258V4.56606H12.0578L12.2118 5.44806C12.5291 5.07473 12.8698 4.79473 13.2338 4.60806C13.6071 4.42139 14.0225 4.32806 14.4798 4.32806Z" fill="#666666"/>
<path d="M24.8699 1.61206V12.0001H22.9099L22.7979 11.1321C22.2752 11.8694 21.5706 12.2381 20.6839 12.2381C19.7599 12.2381 19.0552 11.8834 18.5699 11.1741C18.0939 10.4647 17.8559 9.49406 17.8559 8.26206C17.8559 7.50606 17.9819 6.82939 18.2339 6.23206C18.4859 5.63473 18.8406 5.16806 19.2979 4.83206C19.7646 4.49606 20.2966 4.32806 20.8939 4.32806C21.6032 4.32806 22.1912 4.56139 22.6579 5.02806V1.37406L24.8699 1.61206ZM21.3699 10.6141C21.8832 10.6141 22.3126 10.3341 22.6579 9.77406V6.56806C22.4806 6.35339 22.2985 6.19473 22.1119 6.09206C21.9345 5.98939 21.7292 5.93806 21.4959 5.93806C21.0852 5.93806 20.7586 6.12939 20.5159 6.51206C20.2732 6.89473 20.1519 7.48273 20.1519 8.27606C20.1519 9.14406 20.2546 9.75073 20.4599 10.0961C20.6746 10.4414 20.9779 10.6141 21.3699 10.6141Z" fill="#666666"/>
<path d="M30.6324 4.35606C30.9031 4.35606 31.1504 4.38873 31.3744 4.45406L31.0244 6.59606C30.7444 6.53073 30.5204 6.49806 30.3524 6.49806C29.9137 6.49806 29.5777 6.65206 29.3444 6.96006C29.1204 7.25873 28.9431 7.71139 28.8124 8.31806V12.0001H26.6004V4.56606H28.5324L28.7144 6.00806C28.8824 5.49473 29.1344 5.09339 29.4704 4.80406C29.8157 4.50539 30.2031 4.35606 30.6324 4.35606Z" fill="#666666"/>
<path d="M38.2777 8.13606C38.2777 8.44406 38.2637 8.71006 38.2357 8.93406H33.6297C33.7044 9.55939 33.8817 9.99806 34.1617 10.2501C34.4417 10.5021 34.8291 10.6281 35.3237 10.6281C35.6224 10.6281 35.9117 10.5767 36.1917 10.4741C36.4717 10.3621 36.7751 10.1941 37.1017 9.97006L38.0117 11.2021C37.1437 11.8927 36.1777 12.2381 35.1137 12.2381C33.9097 12.2381 32.9857 11.8834 32.3417 11.1741C31.6977 10.4647 31.3757 9.51273 31.3757 8.31806C31.3757 7.56206 31.5111 6.88539 31.7817 6.28806C32.0524 5.68139 32.4491 5.20539 32.9717 4.86006C33.4944 4.50539 34.1197 4.32806 34.8477 4.32806C35.9211 4.32806 36.7611 4.66406 37.3677 5.33606C37.9744 6.00806 38.2777 6.94139 38.2777 8.13606ZM36.1077 7.50606C36.0891 6.36739 35.6877 5.79806 34.9037 5.79806C34.5211 5.79806 34.2224 5.93806 34.0077 6.21806C33.8024 6.49806 33.6764 6.96006 33.6297 7.60406H36.1077V7.50606ZM35.8977 0.310059L36.7657 1.96206L33.4617 3.29206L32.8457 2.15806L35.8977 0.310059Z" fill="#666666"/>
<path d="M40.1956 9.70406C40.541 9.70406 40.835 9.83006 41.0776 10.0821C41.3296 10.3247 41.4556 10.6187 41.4556 10.9641C41.4556 11.3187 41.3296 11.6221 41.0776 11.8741C40.835 12.1167 40.541 12.2381 40.1956 12.2381C39.841 12.2381 39.5376 12.1167 39.2856 11.8741C39.043 11.6221 38.9216 11.3187 38.9216 10.9641C38.9216 10.6187 39.043 10.3247 39.2856 10.0821C39.5376 9.83006 39.841 9.70406 40.1956 9.70406Z" fill="#666666"/>
<path d="M52.7472 2.29806L52.5232 4.06206H50.1292V12.0001H47.8332V4.06206H45.3272V2.29806H52.7472Z" fill="#666666"/>
<path d="M56.0841 4.32806C57.2228 4.32806 58.1141 4.67806 58.7581 5.37806C59.4021 6.06873 59.7241 7.03939 59.7241 8.29006C59.7241 9.08339 59.5748 9.77873 59.2761 10.3761C58.9868 10.9641 58.5668 11.4214 58.0161 11.7481C57.4748 12.0747 56.8308 12.2381 56.0841 12.2381C54.9548 12.2381 54.0634 11.8927 53.4101 11.2021C52.7661 10.5021 52.4441 9.52673 52.4441 8.27606C52.4441 7.48273 52.5888 6.79206 52.8781 6.20406C53.1768 5.60673 53.5968 5.14473 54.1381 4.81806C54.6888 4.49139 55.3374 4.32806 56.0841 4.32806ZM56.0841 5.95206C55.6361 5.95206 55.3001 6.14339 55.0761 6.52606C54.8521 6.89939 54.7401 7.48273 54.7401 8.27606C54.7401 9.08806 54.8474 9.68073 55.0621 10.0541C55.2861 10.4274 55.6268 10.6141 56.0841 10.6141C56.5321 10.6141 56.8681 10.4274 57.0921 10.0541C57.3161 9.67139 57.4281 9.08339 57.4281 8.29006C57.4281 7.47806 57.3161 6.88539 57.0921 6.51206C56.8774 6.13873 56.5414 5.95206 56.0841 5.95206Z" fill="#666666"/>
<path d="M67.7039 1.61206V12.0001H65.7439L65.6319 11.1321C65.1092 11.8694 64.4045 12.2381 63.5179 12.2381C62.5939 12.2381 61.8892 11.8834 61.4039 11.1741C60.9279 10.4647 60.6899 9.49406 60.6899 8.26206C60.6899 7.50606 60.8159 6.82939 61.0679 6.23206C61.3199 5.63473 61.6745 5.16806 62.1319 4.83206C62.5985 4.49606 63.1305 4.32806 63.7279 4.32806C64.4372 4.32806 65.0252 4.56139 65.4919 5.02806V1.37406L67.7039 1.61206ZM64.2039 10.6141C64.7172 10.6141 65.1465 10.3341 65.4919 9.77406V6.56806C65.3145 6.35339 65.1325 6.19473 64.9459 6.09206C64.7685 5.98939 64.5632 5.93806 64.3299 5.93806C63.9192 5.93806 63.5925 6.12939 63.3499 6.51206C63.1072 6.89473 62.9859 7.48273 62.9859 8.27606C62.9859 9.14406 63.0885 9.75073 63.2939 10.0961C63.5085 10.4414 63.8119 10.6141 64.2039 10.6141Z" fill="#666666"/>
<path d="M72.6544 4.32806C73.7931 4.32806 74.6844 4.67806 75.3284 5.37806C75.9724 6.06873 76.2944 7.03939 76.2944 8.29006C76.2944 9.08339 76.1451 9.77873 75.8464 10.3761C75.5571 10.9641 75.1371 11.4214 74.5864 11.7481C74.0451 12.0747 73.4011 12.2381 72.6544 12.2381C71.5251 12.2381 70.6337 11.8927 69.9804 11.2021C69.3364 10.5021 69.0144 9.52673 69.0144 8.27606C69.0144 7.48273 69.1591 6.79206 69.4484 6.20406C69.7471 5.60673 70.1671 5.14473 70.7084 4.81806C71.2591 4.49139 71.9077 4.32806 72.6544 4.32806ZM72.6544 5.95206C72.2064 5.95206 71.8704 6.14339 71.6464 6.52606C71.4224 6.89939 71.3104 7.48273 71.3104 8.27606C71.3104 9.08806 71.4177 9.68073 71.6324 10.0541C71.8564 10.4274 72.1971 10.6141 72.6544 10.6141C73.1024 10.6141 73.4384 10.4274 73.6624 10.0541C73.8864 9.67139 73.9984 9.08339 73.9984 8.29006C73.9984 7.47806 73.8864 6.88539 73.6624 6.51206C73.4477 6.13873 73.1117 5.95206 72.6544 5.95206Z" fill="#666666"/>
<path d="M80.2282 4.32806C80.7602 4.32806 81.2595 4.40739 81.7262 4.56606C82.1928 4.72473 82.6035 4.94873 82.9582 5.23806L82.1462 6.48406C81.5395 6.10139 80.9282 5.91006 80.3122 5.91006C80.0228 5.91006 79.7988 5.96139 79.6402 6.06406C79.4908 6.15739 79.4162 6.29273 79.4162 6.47006C79.4162 6.61006 79.4488 6.72673 79.5142 6.82006C79.5888 6.90406 79.7335 6.99273 79.9482 7.08606C80.1628 7.17939 80.4942 7.29139 80.9422 7.42206C81.7169 7.64606 82.2909 7.94006 82.6642 8.30406C83.0469 8.65873 83.2382 9.15339 83.2382 9.78806C83.2382 10.2921 83.0935 10.7307 82.8042 11.1041C82.5149 11.4681 82.1182 11.7481 81.6142 11.9441C81.1102 12.1401 80.5502 12.2381 79.9342 12.2381C79.3088 12.2381 78.7255 12.1401 78.1842 11.9441C77.6522 11.7481 77.1995 11.4774 76.8262 11.1321L77.9042 9.92806C78.5295 10.4134 79.1875 10.6561 79.8782 10.6561C80.2142 10.6561 80.4755 10.5954 80.6622 10.4741C80.8582 10.3527 80.9562 10.1801 80.9562 9.95606C80.9562 9.77873 80.9188 9.63873 80.8442 9.53606C80.7695 9.43339 80.6248 9.34006 80.4102 9.25606C80.1955 9.16273 79.8549 9.05073 79.3882 8.92006C78.6509 8.70539 78.1002 8.40673 77.7362 8.02406C77.3722 7.64139 77.1902 7.16539 77.1902 6.59606C77.1902 6.16673 77.3115 5.78406 77.5542 5.44806C77.8062 5.10273 78.1608 4.83206 78.6182 4.63606C79.0848 4.43073 79.6215 4.32806 80.2282 4.32806Z" fill="#666666"/>
<path d="M90.92 4.32806C92.0587 4.32806 92.95 4.67806 93.594 5.37806C94.238 6.06873 94.56 7.03939 94.56 8.29006C94.56 9.08339 94.4107 9.77873 94.112 10.3761C93.8227 10.9641 93.4027 11.4214 92.852 11.7481C92.3107 12.0747 91.6667 12.2381 90.92 12.2381C89.7907 12.2381 88.8994 11.8927 88.246 11.2021C87.602 10.5021 87.28 9.52673 87.28 8.27606C87.28 7.48273 87.4247 6.79206 87.714 6.20406C88.0127 5.60673 88.4327 5.14473 88.974 4.81806C89.5247 4.49139 90.1734 4.32806 90.92 4.32806ZM90.92 5.95206C90.472 5.95206 90.136 6.14339 89.912 6.52606C89.688 6.89939 89.576 7.48273 89.576 8.27606C89.576 9.08806 89.6834 9.68073 89.898 10.0541C90.122 10.4274 90.4627 10.6141 90.92 10.6141C91.368 10.6141 91.704 10.4274 91.928 10.0541C92.152 9.67139 92.264 9.08339 92.264 8.29006C92.264 7.47806 92.152 6.88539 91.928 6.51206C91.7134 6.13873 91.3774 5.95206 90.92 5.95206Z" fill="#666666"/>
<path d="M98.4938 4.32806C99.0258 4.32806 99.5251 4.40739 99.9918 4.56606C100.458 4.72473 100.869 4.94873 101.224 5.23806L100.412 6.48406C99.8051 6.10139 99.1938 5.91006 98.5778 5.91006C98.2885 5.91006 98.0645 5.96139 97.9058 6.06406C97.7565 6.15739 97.6818 6.29273 97.6818 6.47006C97.6818 6.61006 97.7145 6.72673 97.7798 6.82006C97.8545 6.90406 97.9991 6.99273 98.2138 7.08606C98.4285 7.17939 98.7598 7.29139 99.2078 7.42206C99.9825 7.64606 100.556 7.94006 100.93 8.30406C101.312 8.65873 101.504 9.15339 101.504 9.78806C101.504 10.2921 101.359 10.7307 101.07 11.1041C100.78 11.4681 100.384 11.7481 99.8798 11.9441C99.3758 12.1401 98.8158 12.2381 98.1998 12.2381C97.5745 12.2381 96.9911 12.1401 96.4498 11.9441C95.9178 11.7481 95.4651 11.4774 95.0918 11.1321L96.1698 9.92806C96.7951 10.4134 97.4531 10.6561 98.1438 10.6561C98.4798 10.6561 98.7411 10.5954 98.9278 10.4741C99.1238 10.3527 99.2218 10.1801 99.2218 9.95606C99.2218 9.77873 99.1845 9.63873 99.1098 9.53606C99.0351 9.43339 98.8905 9.34006 98.6758 9.25606C98.4611 9.16273 98.1205 9.05073 97.6538 8.92006C96.9165 8.70539 96.3658 8.40673 96.0018 8.02406C95.6378 7.64139 95.4558 7.16539 95.4558 6.59606C95.4558 6.16673 95.5771 5.78406 95.8198 5.44806C96.0718 5.10273 96.4265 4.83206 96.8838 4.63606C97.3505 4.43073 97.8871 4.32806 98.4938 4.32806Z" fill="#666666"/>
<path d="M112.63 1.61206V12.0001H110.67L110.558 11.1321C110.035 11.8694 109.33 12.2381 108.444 12.2381C107.52 12.2381 106.815 11.8834 106.33 11.1741C105.854 10.4647 105.616 9.49406 105.616 8.26206C105.616 7.50606 105.742 6.82939 105.994 6.23206C106.246 5.63473 106.6 5.16806 107.058 4.83206C107.524 4.49606 108.056 4.32806 108.654 4.32806C109.363 4.32806 109.951 4.56139 110.418 5.02806V1.37406L112.63 1.61206ZM109.13 10.6141C109.643 10.6141 110.072 10.3341 110.418 9.77406V6.56806C110.24 6.35339 110.058 6.19473 109.872 6.09206C109.694 5.98939 109.489 5.93806 109.256 5.93806C108.845 5.93806 108.518 6.12939 108.276 6.51206C108.033 6.89473 107.912 7.48273 107.912 8.27606C107.912 9.14406 108.014 9.75073 108.22 10.0961C108.434 10.4414 108.738 10.6141 109.13 10.6141Z" fill="#666666"/>
<path d="M116.572 4.56606V12.0001H114.36V4.56606H116.572ZM115.452 0.646058C115.835 0.646058 116.148 0.767392 116.39 1.01006C116.642 1.24339 116.768 1.54206 116.768 1.90606C116.768 2.27006 116.642 2.57339 116.39 2.81606C116.148 3.04939 115.835 3.16606 115.452 3.16606C115.07 3.16606 114.757 3.04939 114.514 2.81606C114.272 2.57339 114.15 2.27006 114.15 1.90606C114.15 1.54206 114.272 1.24339 114.514 1.01006C114.757 0.767392 115.07 0.646058 115.452 0.646058Z" fill="#666666"/>
<path d="M122.343 4.35606C122.614 4.35606 122.861 4.38873 123.085 4.45406L122.735 6.59606C122.455 6.53073 122.231 6.49806 122.063 6.49806C121.625 6.49806 121.289 6.65206 121.055 6.96006C120.831 7.25873 120.654 7.71139 120.523 8.31806V12.0001H118.311V4.56606H120.243L120.425 6.00806C120.593 5.49473 120.845 5.09339 121.181 4.80406C121.527 4.50539 121.914 4.35606 122.343 4.35606Z" fill="#666666"/>
<path d="M129.989 8.13606C129.989 8.44406 129.975 8.71006 129.947 8.93406H125.341C125.415 9.55939 125.593 9.99806 125.873 10.2501C126.153 10.5021 126.54 10.6281 127.035 10.6281C127.333 10.6281 127.623 10.5767 127.903 10.4741C128.183 10.3621 128.486 10.1941 128.813 9.97006L129.723 11.2021C128.855 11.8927 127.889 12.2381 126.825 12.2381C125.621 12.2381 124.697 11.8834 124.053 11.1741C123.409 10.4647 123.087 9.51273 123.087 8.31806C123.087 7.56206 123.222 6.88539 123.493 6.28806C123.763 5.68139 124.16 5.20539 124.683 4.86006C125.205 4.50539 125.831 4.32806 126.559 4.32806C127.632 4.32806 128.472 4.66406 129.079 5.33606C129.685 6.00806 129.989 6.94139 129.989 8.13606ZM127.819 7.50606C127.8 6.36739 127.399 5.79806 126.615 5.79806C126.232 5.79806 125.933 5.93806 125.719 6.21806C125.513 6.49806 125.387 6.96006 125.341 7.60406H127.819V7.50606Z" fill="#666666"/>
<path d="M133.443 4.56606V12.0001H131.231V4.56606H133.443ZM132.323 0.646058C132.706 0.646058 133.019 0.767392 133.261 1.01006C133.513 1.24339 133.639 1.54206 133.639 1.90606C133.639 2.27006 133.513 2.57339 133.261 2.81606C133.019 3.04939 132.706 3.16606 132.323 3.16606C131.941 3.16606 131.628 3.04939 131.385 2.81606C131.143 2.57339 131.021 2.27006 131.021 1.90606C131.021 1.54206 131.143 1.24339 131.385 1.01006C131.628 0.767392 131.941 0.646058 132.323 0.646058Z" fill="#666666"/>
<path d="M139.844 11.6501C139.574 11.8367 139.256 11.9814 138.892 12.0841C138.538 12.1867 138.183 12.2381 137.828 12.2381C136.204 12.2287 135.392 11.3327 135.392 9.55006V6.10606H134.342V4.56606H135.392V2.95606L137.604 2.70406V4.56606H139.312L139.074 6.10606H137.604V9.52206C137.604 9.86739 137.66 10.1147 137.772 10.2641C137.884 10.4134 138.062 10.4881 138.304 10.4881C138.556 10.4881 138.822 10.4087 139.102 10.2501L139.844 11.6501Z" fill="#666666"/>
<path d="M143.557 4.32806C144.695 4.32806 145.587 4.67806 146.231 5.37806C146.875 6.06873 147.197 7.03939 147.197 8.29006C147.197 9.08339 147.047 9.77873 146.749 10.3761C146.459 10.9641 146.039 11.4214 145.489 11.7481C144.947 12.0747 144.303 12.2381 143.557 12.2381C142.427 12.2381 141.536 11.8927 140.883 11.2021C140.239 10.5021 139.917 9.52673 139.917 8.27606C139.917 7.48273 140.061 6.79206 140.351 6.20406C140.649 5.60673 141.069 5.14473 141.611 4.81806C142.161 4.49139 142.81 4.32806 143.557 4.32806ZM143.557 5.95206C143.109 5.95206 142.773 6.14339 142.549 6.52606C142.325 6.89939 142.213 7.48273 142.213 8.27606C142.213 9.08806 142.32 9.68073 142.535 10.0541C142.759 10.4274 143.099 10.6141 143.557 10.6141C144.005 10.6141 144.341 10.4274 144.565 10.0541C144.789 9.67139 144.901 9.08339 144.901 8.29006C144.901 7.47806 144.789 6.88539 144.565 6.51206C144.35 6.13873 144.014 5.95206 143.557 5.95206Z" fill="#666666"/>
<path d="M151.131 4.32806C151.663 4.32806 152.162 4.40739 152.629 4.56606C153.095 4.72473 153.506 4.94873 153.861 5.23806L153.049 6.48406C152.442 6.10139 151.831 5.91006 151.215 5.91006C150.925 5.91006 150.701 5.96139 150.543 6.06406C150.393 6.15739 150.319 6.29273 150.319 6.47006C150.319 6.61006 150.351 6.72673 150.417 6.82006C150.491 6.90406 150.636 6.99273 150.851 7.08606C151.065 7.17939 151.397 7.29139 151.845 7.42206C152.619 7.64606 153.193 7.94006 153.567 8.30406C153.949 8.65873 154.141 9.15339 154.141 9.78806C154.141 10.2921 153.996 10.7307 153.707 11.1041C153.417 11.4681 153.021 11.7481 152.517 11.9441C152.013 12.1401 151.453 12.2381 150.837 12.2381C150.211 12.2381 149.628 12.1401 149.087 11.9441C148.555 11.7481 148.102 11.4774 147.729 11.1321L148.807 9.92806C149.432 10.4134 150.09 10.6561 150.781 10.6561C151.117 10.6561 151.378 10.5954 151.565 10.4741C151.761 10.3527 151.859 10.1801 151.859 9.95606C151.859 9.77873 151.821 9.63873 151.747 9.53606C151.672 9.43339 151.527 9.34006 151.313 9.25606C151.098 9.16273 150.757 9.05073 150.291 8.92006C149.553 8.70539 149.003 8.40673 148.639 8.02406C148.275 7.64139 148.093 7.16539 148.093 6.59606C148.093 6.16673 148.214 5.78406 148.457 5.44806C148.709 5.10273 149.063 4.83206 149.521 4.63606C149.987 4.43073 150.524 4.32806 151.131 4.32806Z" fill="#666666"/>
<path d="M162.634 4.35606C162.905 4.35606 163.152 4.38873 163.376 4.45406L163.026 6.59606C162.746 6.53073 162.522 6.49806 162.354 6.49806C161.916 6.49806 161.58 6.65206 161.346 6.96006C161.122 7.25873 160.945 7.71139 160.814 8.31806V12.0001H158.602V4.56606H160.534L160.716 6.00806C160.884 5.49473 161.136 5.09339 161.472 4.80406C161.818 4.50539 162.205 4.35606 162.634 4.35606Z" fill="#666666"/>
<path d="M170.28 8.13606C170.28 8.44406 170.266 8.71006 170.238 8.93406H165.632C165.706 9.55939 165.884 9.99806 166.164 10.2501C166.444 10.5021 166.831 10.6281 167.326 10.6281C167.624 10.6281 167.914 10.5767 168.194 10.4741C168.474 10.3621 168.777 10.1941 169.104 9.97006L170.014 11.2021C169.146 11.8927 168.18 12.2381 167.116 12.2381C165.912 12.2381 164.988 11.8834 164.344 11.1741C163.7 10.4647 163.378 9.51273 163.378 8.31806C163.378 7.56206 163.513 6.88539 163.784 6.28806C164.054 5.68139 164.451 5.20539 164.974 4.86006C165.496 4.50539 166.122 4.32806 166.85 4.32806C167.923 4.32806 168.763 4.66406 169.37 5.33606C169.976 6.00806 170.28 6.94139 170.28 8.13606ZM168.11 7.50606C168.091 6.36739 167.69 5.79806 166.906 5.79806C166.523 5.79806 166.224 5.93806 166.01 6.21806C165.804 6.49806 165.678 6.96006 165.632 7.60406H168.11V7.50606Z" fill="#666666"/>
<path d="M174.14 4.32806C174.672 4.32806 175.172 4.40739 175.638 4.56606C176.105 4.72473 176.516 4.94873 176.87 5.23806L176.058 6.48406C175.452 6.10139 174.84 5.91006 174.224 5.91006C173.935 5.91006 173.711 5.96139 173.552 6.06406C173.403 6.15739 173.328 6.29273 173.328 6.47006C173.328 6.61006 173.361 6.72673 173.426 6.82006C173.501 6.90406 173.646 6.99273 173.86 7.08606C174.075 7.17939 174.406 7.29139 174.854 7.42206C175.629 7.64606 176.203 7.94006 176.576 8.30406C176.959 8.65873 177.15 9.15339 177.15 9.78806C177.15 10.2921 177.006 10.7307 176.716 11.1041C176.427 11.4681 176.03 11.7481 175.526 11.9441C175.022 12.1401 174.462 12.2381 173.846 12.2381C173.221 12.2381 172.638 12.1401 172.096 11.9441C171.564 11.7481 171.112 11.4774 170.738 11.1321L171.816 9.92806C172.442 10.4134 173.1 10.6561 173.79 10.6561C174.126 10.6561 174.388 10.5954 174.574 10.4741C174.77 10.3527 174.868 10.1801 174.868 9.95606C174.868 9.77873 174.831 9.63873 174.756 9.53606C174.682 9.43339 174.537 9.34006 174.322 9.25606C174.108 9.16273 173.767 9.05073 173.3 8.92006C172.563 8.70539 172.012 8.40673 171.648 8.02406C171.284 7.64139 171.102 7.16539 171.102 6.59606C171.102 6.16673 171.224 5.78406 171.466 5.44806C171.718 5.10273 172.073 4.83206 172.53 4.63606C172.997 4.43073 173.534 4.32806 174.14 4.32806Z" fill="#666666"/>
<path d="M184.772 8.13606C184.772 8.44406 184.758 8.71006 184.73 8.93406H180.124C180.199 9.55939 180.376 9.99806 180.656 10.2501C180.936 10.5021 181.323 10.6281 181.818 10.6281C182.117 10.6281 182.406 10.5767 182.686 10.4741C182.966 10.3621 183.269 10.1941 183.596 9.97006L184.506 11.2021C183.638 11.8927 182.672 12.2381 181.608 12.2381C180.404 12.2381 179.48 11.8834 178.836 11.1741C178.192 10.4647 177.87 9.51273 177.87 8.31806C177.87 7.56206 178.005 6.88539 178.276 6.28806C178.547 5.68139 178.943 5.20539 179.466 4.86006C179.989 4.50539 180.614 4.32806 181.342 4.32806C182.415 4.32806 183.255 4.66406 183.862 5.33606C184.469 6.00806 184.772 6.94139 184.772 8.13606ZM182.602 7.50606C182.583 6.36739 182.182 5.79806 181.398 5.79806C181.015 5.79806 180.717 5.93806 180.502 6.21806C180.297 6.49806 180.171 6.96006 180.124 7.60406H182.602V7.50606Z" fill="#666666"/>
<path d="M190.046 4.35606C190.317 4.35606 190.564 4.38873 190.788 4.45406L190.438 6.59606C190.158 6.53073 189.934 6.49806 189.766 6.49806C189.328 6.49806 188.992 6.65206 188.758 6.96006C188.534 7.25873 188.357 7.71139 188.226 8.31806V12.0001H186.014V4.56606H187.946L188.128 6.00806C188.296 5.49473 188.548 5.09339 188.884 4.80406C189.23 4.50539 189.617 4.35606 190.046 4.35606Z" fill="#666666"/>
<path d="M198.032 4.56606L195.694 12.0001H193.076L190.682 4.56606H193.09L194.406 10.3201L195.778 4.56606H198.032Z" fill="#666666"/>
<path d="M204.405 9.84406C204.405 10.1241 204.442 10.3294 204.517 10.4601C204.601 10.5907 204.732 10.6887 204.909 10.7541L204.447 12.1961C203.99 12.1587 203.616 12.0607 203.327 11.9021C203.038 11.7341 202.814 11.4727 202.655 11.1181C202.17 11.8647 201.423 12.2381 200.415 12.2381C199.678 12.2381 199.09 12.0234 198.651 11.5941C198.212 11.1647 197.993 10.6047 197.993 9.91406C197.993 9.10206 198.292 8.48139 198.889 8.05206C199.486 7.62273 200.35 7.40806 201.479 7.40806H202.235V7.08606C202.235 6.64739 202.142 6.34873 201.955 6.19006C201.768 6.02206 201.442 5.93806 200.975 5.93806C200.732 5.93806 200.438 5.97539 200.093 6.05006C199.748 6.11539 199.393 6.20873 199.029 6.33006L198.525 4.87406C198.992 4.69673 199.468 4.56139 199.953 4.46806C200.448 4.37473 200.905 4.32806 201.325 4.32806C202.389 4.32806 203.168 4.54739 203.663 4.98606C204.158 5.42473 204.405 6.08273 204.405 6.96006V9.84406ZM201.059 10.6561C201.563 10.6561 201.955 10.4181 202.235 9.94206V8.62606H201.689C201.185 8.62606 200.807 8.71473 200.555 8.89206C200.312 9.06939 200.191 9.34473 200.191 9.71806C200.191 10.0167 200.266 10.2501 200.415 10.4181C200.574 10.5767 200.788 10.6561 201.059 10.6561Z" fill="#666666"/>
<path d="M212.831 1.61206V12.0001H210.871L210.759 11.1321C210.236 11.8694 209.531 12.2381 208.645 12.2381C207.721 12.2381 207.016 11.8834 206.531 11.1741C206.055 10.4647 205.817 9.49406 205.817 8.26206C205.817 7.50606 205.943 6.82939 206.195 6.23206C206.447 5.63473 206.801 5.16806 207.259 4.83206C207.725 4.49606 208.257 4.32806 208.855 4.32806C209.564 4.32806 210.152 4.56139 210.619 5.02806V1.37406L212.831 1.61206ZM209.331 10.6141C209.844 10.6141 210.273 10.3341 210.619 9.77406V6.56806C210.441 6.35339 210.259 6.19473 210.073 6.09206C209.895 5.98939 209.69 5.93806 209.457 5.93806C209.046 5.93806 208.719 6.12939 208.477 6.51206C208.234 6.89473 208.113 7.48273 208.113 8.27606C208.113 9.14406 208.215 9.75073 208.421 10.0961C208.635 10.4414 208.939 10.6141 209.331 10.6141Z" fill="#666666"/>
<path d="M217.781 4.32806C218.92 4.32806 219.811 4.67806 220.455 5.37806C221.099 6.06873 221.421 7.03939 221.421 8.29006C221.421 9.08339 221.272 9.77873 220.973 10.3761C220.684 10.9641 220.264 11.4214 219.713 11.7481C219.172 12.0747 218.528 12.2381 217.781 12.2381C216.652 12.2381 215.761 11.8927 215.107 11.2021C214.463 10.5021 214.141 9.52673 214.141 8.27606C214.141 7.48273 214.286 6.79206 214.575 6.20406C214.874 5.60673 215.294 5.14473 215.835 4.81806C216.386 4.49139 217.035 4.32806 217.781 4.32806ZM217.781 5.95206C217.333 5.95206 216.997 6.14339 216.773 6.52606C216.549 6.89939 216.437 7.48273 216.437 8.27606C216.437 9.08806 216.545 9.68073 216.759 10.0541C216.983 10.4274 217.324 10.6141 217.781 10.6141C218.229 10.6141 218.565 10.4274 218.789 10.0541C219.013 9.67139 219.125 9.08339 219.125 8.29006C219.125 7.47806 219.013 6.88539 218.789 6.51206C218.575 6.13873 218.239 5.95206 217.781 5.95206Z" fill="#666666"/>
<path d="M225.355 4.32806C225.887 4.32806 226.386 4.40739 226.853 4.56606C227.32 4.72473 227.73 4.94873 228.085 5.23806L227.273 6.48406C226.666 6.10139 226.055 5.91006 225.439 5.91006C225.15 5.91006 224.926 5.96139 224.767 6.06406C224.618 6.15739 224.543 6.29273 224.543 6.47006C224.543 6.61006 224.576 6.72673 224.641 6.82006C224.716 6.90406 224.86 6.99273 225.075 7.08606C225.29 7.17939 225.621 7.29139 226.069 7.42206C226.844 7.64606 227.418 7.94006 227.791 8.30406C228.174 8.65873 228.365 9.15339 228.365 9.78806C228.365 10.2921 228.22 10.7307 227.931 11.1041C227.642 11.4681 227.245 11.7481 226.741 11.9441C226.237 12.1401 225.677 12.2381 225.061 12.2381C224.436 12.2381 223.852 12.1401 223.311 11.9441C222.779 11.7481 222.326 11.4774 221.953 11.1321L223.031 9.92806C223.656 10.4134 224.314 10.6561 225.005 10.6561C225.341 10.6561 225.602 10.5954 225.789 10.4741C225.985 10.3527 226.083 10.1801 226.083 9.95606C226.083 9.77873 226.046 9.63873 225.971 9.53606C225.896 9.43339 225.752 9.34006 225.537 9.25606C225.322 9.16273 224.982 9.05073 224.515 8.92006C223.778 8.70539 223.227 8.40673 222.863 8.02406C222.499 7.64139 222.317 7.16539 222.317 6.59606C222.317 6.16673 222.438 5.78406 222.681 5.44806C222.933 5.10273 223.288 4.83206 223.745 4.63606C224.212 4.43073 224.748 4.32806 225.355 4.32806Z" fill="#666666"/>
<path d="M230.317 9.70406C230.662 9.70406 230.956 9.83006 231.199 10.0821C231.451 10.3247 231.577 10.6187 231.577 10.9641C231.577 11.3187 231.451 11.6221 231.199 11.8741C230.956 12.1167 230.662 12.2381 230.317 12.2381C229.962 12.2381 229.659 12.1167 229.407 11.8741C229.164 11.6221 229.043 11.3187 229.043 10.9641C229.043 10.6187 229.164 10.3247 229.407 10.0821C229.659 9.83006 229.962 9.70406 230.317 9.70406Z" fill="#666666"/>
</svg>
