<svg width="36" height="28" viewBox="0 0 36 28" fill="none" xmlns="http://www.w3.org/2000/svg">
<path d="M35.318 9.476C35.5922 9.25345 36 9.46164 36 9.81341V24.4944C36 26.3969 34.4883 27.9403 32.625 27.9403H3.375C1.51172 27.9403 0 26.3969 0 24.4944V9.82059C0 9.46164 0.400781 9.26063 0.682031 9.48318C2.25703 10.7323 4.34531 12.3189 11.5172 17.6385C13.0008 18.7441 15.5039 21.0701 18 21.0557C20.5102 21.0772 23.0625 18.701 24.4898 17.6385C31.6617 12.3189 33.743 10.7251 35.318 9.476ZM18 18.7512C19.6313 18.78 21.9797 16.655 23.1609 15.7791C32.4914 8.86578 33.2016 8.26275 35.3531 6.53979C35.7609 6.21674 36 5.71421 36 5.18297V3.81896C36 1.91653 34.4883 0.373047 32.625 0.373047H3.375C1.51172 0.373047 0 1.91653 0 3.81896V5.18297C0 5.71421 0.239062 6.20956 0.646875 6.53979C2.79844 8.25557 3.50859 8.86578 12.8391 15.7791C14.0203 16.655 16.3687 18.78 18 18.7512Z" fill="#1C9FE4"/>
</svg>
