<svg width="36" height="37" viewBox="0 0 36 37" fill="none" xmlns="http://www.w3.org/2000/svg">
<path d="M32.1429 0.680176H3.85714C1.72768 0.680176 0 2.40785 0 4.53732V32.823C0 34.9525 1.72768 36.6802 3.85714 36.6802H32.1429C34.2723 36.6802 36 34.9525 36 32.823V4.53732C36 2.40785 34.2723 0.680176 32.1429 0.680176ZM22.283 31.5132C21.608 31.6337 21.3589 31.2159 21.3589 30.8704C21.3589 30.4364 21.375 28.2186 21.375 26.4266C21.375 25.173 20.9571 24.3775 20.467 23.9596C23.4402 23.6302 26.5741 23.2204 26.5741 18.0855C26.5741 16.623 26.0518 15.8918 25.2 14.9516C25.3366 14.6061 25.7946 13.1837 25.0634 11.3355C23.9464 10.99 21.3911 12.7739 21.3911 12.7739C20.3304 12.4766 19.1813 12.3239 18.0482 12.3239C16.9152 12.3239 15.7661 12.4766 14.7054 12.7739C14.7054 12.7739 12.15 10.99 11.033 11.3355C10.3018 13.1757 10.7518 14.598 10.8964 14.9516C10.0446 15.8918 9.64286 16.623 9.64286 18.0855C9.64286 23.1962 12.6402 23.6302 15.6134 23.9596C15.2277 24.3052 14.8821 24.8998 14.7616 25.7516C13.9982 26.0971 12.0455 26.6918 10.8804 24.6346C10.1491 23.365 8.83125 23.2605 8.83125 23.2605C7.52946 23.2445 8.74286 24.0802 8.74286 24.0802C9.61071 24.482 10.2214 26.0248 10.2214 26.0248C11.0009 28.4114 14.7295 27.6079 14.7295 27.6079C14.7295 28.7248 14.7455 30.5409 14.7455 30.8704C14.7455 31.2159 14.5045 31.6337 13.8214 31.5132C8.51786 29.7373 4.80536 24.6909 4.80536 18.7927C4.80536 11.4159 10.4464 5.815 17.8232 5.815C25.2 5.815 31.1786 11.4159 31.1786 18.7927C31.1866 24.6909 27.5866 29.7454 22.283 31.5132ZM14.4 26.6034C14.2473 26.6355 14.1027 26.5712 14.0866 26.4668C14.0705 26.3462 14.175 26.2418 14.3277 26.2096C14.4804 26.1936 14.625 26.2579 14.6411 26.3623C14.6652 26.4668 14.5607 26.5712 14.4 26.6034ZM13.6366 26.5311C13.6366 26.6355 13.5161 26.7239 13.3554 26.7239C13.1786 26.74 13.058 26.6516 13.058 26.5311C13.058 26.4266 13.1786 26.3382 13.3393 26.3382C13.492 26.3221 13.6366 26.4105 13.6366 26.5311ZM12.5357 26.4427C12.5036 26.5471 12.3429 26.5954 12.2062 26.5471C12.0536 26.515 11.9491 26.3945 11.9813 26.29C12.0134 26.1855 12.1741 26.1373 12.3107 26.1695C12.4714 26.2177 12.5759 26.3382 12.5357 26.4427ZM11.5473 26.0087C11.475 26.0971 11.3223 26.0811 11.2018 25.9605C11.0812 25.8561 11.0491 25.7034 11.1295 25.6311C11.2018 25.5427 11.3545 25.5587 11.475 25.6793C11.5795 25.7837 11.6196 25.9445 11.5473 26.0087ZM10.8161 25.2775C10.7438 25.3257 10.6071 25.2775 10.5187 25.157C10.4304 25.0364 10.4304 24.8998 10.5187 24.8436C10.6071 24.7712 10.7438 24.8275 10.8161 24.948C10.9045 25.0686 10.9045 25.2132 10.8161 25.2775ZM10.2938 24.498C10.2214 24.5704 10.1009 24.5302 10.0125 24.4498C9.92411 24.3454 9.90804 24.2248 9.98036 24.1686C10.0527 24.0962 10.1732 24.1364 10.2616 24.2168C10.35 24.3212 10.3661 24.4418 10.2938 24.498ZM9.75536 23.9034C9.72321 23.9757 9.61875 23.9918 9.53036 23.9355C9.42589 23.8873 9.37768 23.7989 9.40982 23.7266C9.44196 23.6784 9.53036 23.6543 9.63482 23.6945C9.73929 23.7507 9.7875 23.8391 9.75536 23.9034Z" fill="white"/>
</svg>
