<svg width="24" height="24" viewBox="0 0 24 24" fill="none" xmlns="http://www.w3.org/2000/svg">
<mask id="mask0_9_247" style="mask-type:alpha" maskUnits="userSpaceOnUse" x="0" y="0" width="24" height="24">
<rect width="24" height="24" fill="#D9D9D9"/>
</mask>
<g mask="url(#mask0_9_247)">
<path d="M15.075 18.5454L14.225 20.7695C14.1583 20.9376 14.0417 21.0752 13.875 21.1822C13.7083 21.2892 13.525 21.3427 13.325 21.3427C12.9917 21.3427 12.7208 21.2166 12.5125 20.9644C12.3042 20.7121 12.2667 20.4332 12.4 20.1275L16.2 10.9103C16.2833 10.7421 16.4083 10.6046 16.575 10.4976C16.7417 10.3906 16.925 10.3371 17.125 10.3371H17.875C18.075 10.3371 18.2583 10.3906 18.425 10.4976C18.5917 10.6046 18.7167 10.7421 18.8 10.9103L22.6 20.1504C22.7333 20.4408 22.7 20.7121 22.5 20.9644C22.3 21.2166 22.0333 21.3427 21.7 21.3427C21.4833 21.3427 21.2958 21.2892 21.1375 21.1822C20.9792 21.0752 20.8583 20.93 20.775 20.7465L19.925 18.5454H15.075ZM9.05 13.9827L4.7 17.9493C4.51667 18.1174 4.2875 18.2053 4.0125 18.213C3.7375 18.2206 3.5 18.1327 3.3 17.9493C3.11667 17.7811 3.025 17.5671 3.025 17.3073C3.025 17.0474 3.11667 16.8334 3.3 16.6653L7.65 12.6758C7.06667 12.1408 6.5375 11.5293 6.0625 10.8415C5.5875 10.1536 5.15 9.37408 4.75 8.5028H6.85C7.18333 9.09894 7.51667 9.61865 7.85 10.0619C8.18333 10.5052 8.58333 10.9485 9.05 11.3918C9.6 10.8873 10.1708 10.1804 10.7625 9.2709C11.3542 8.36141 11.8 7.49395 12.1 6.66853H2C1.71667 6.66853 1.47917 6.58064 1.2875 6.40486C1.09583 6.22907 1 6.01126 1 5.7514C1 5.49155 1.09583 5.27373 1.2875 5.09794C1.47917 4.92216 1.71667 4.83427 2 4.83427H8V3.91713C8 3.65728 8.09583 3.43946 8.2875 3.26368C8.47917 3.08789 8.71667 3 9 3C9.28333 3 9.52083 3.08789 9.7125 3.26368C9.90417 3.43946 10 3.65728 10 3.91713V4.83427H16C16.2833 4.83427 16.5208 4.92216 16.7125 5.09794C16.9042 5.27373 17 5.49155 17 5.7514C17 6.01126 16.9042 6.22907 16.7125 6.40486C16.5208 6.58064 16.2833 6.66853 16 6.66853H14.1C13.75 7.76909 13.225 8.90023 12.525 10.0619C11.825 11.2236 11.1333 12.1102 10.45 12.7216L12.85 14.9686L12.1 16.8487L9.05 13.9827ZM15.7 16.9404H19.3L17.5 12.2631L15.7 16.9404Z" fill="#B6F829"/>
</g>
</svg>
