<svg width="36" height="37" viewBox="0 0 36 37" fill="none" xmlns="http://www.w3.org/2000/svg">
<path d="M18 13.9232C17.1523 13.9235 16.3238 14.1752 15.6191 14.6464C14.9145 15.1175 14.3653 15.7871 14.0412 16.5703C13.717 17.3535 13.6323 18.2153 13.7979 19.0467C13.9635 19.878 14.3718 20.6416 14.9713 21.2409C15.5708 21.8402 16.3346 22.2482 17.166 22.4135C17.9974 22.5787 18.8591 22.4938 19.6423 22.1693C20.4254 21.8448 21.0947 21.2955 21.5656 20.5906C22.0365 19.8858 22.2879 19.0571 22.2879 18.2095C22.287 17.0727 21.8349 15.9827 21.0309 15.179C20.2269 14.3753 19.1368 13.9236 18 13.9232ZM28.0213 10.6286C27.8031 10.0756 27.4736 9.57335 27.0533 9.15299C26.6329 8.73263 26.1307 8.40312 25.5777 8.18492C23.8902 7.51876 19.8723 7.66822 18 7.66822C16.1277 7.66822 12.1138 7.51313 10.4215 8.18492C9.86853 8.40312 9.36628 8.73263 8.94592 9.15299C8.52556 9.57335 8.19606 10.0756 7.97786 10.6286C7.3125 12.3161 7.46116 16.338 7.46116 18.2087C7.46116 20.0794 7.3125 24.0964 7.98107 25.7896C8.19928 26.3425 8.52878 26.8448 8.94914 27.2652C9.3695 27.6855 9.87175 28.015 10.4247 28.2332C12.1122 28.8994 16.1301 28.7499 18.0032 28.7499C19.8763 28.7499 23.8886 28.905 25.5809 28.2332C26.1339 28.015 26.6361 27.6855 27.0565 27.2652C27.4768 26.8448 27.8063 26.3425 28.0246 25.7896C28.6955 24.1021 28.5412 20.0802 28.5412 18.2095C28.5412 16.3388 28.6955 12.3225 28.0246 10.6294L28.0213 10.6286ZM18 24.7988C16.6968 24.7988 15.4228 24.4123 14.3392 23.6883C13.2556 22.9642 12.411 21.9351 11.9123 20.7311C11.4136 19.527 11.2831 18.2022 11.5373 16.924C11.7916 15.6458 12.4191 14.4717 13.3407 13.5501C14.2622 12.6286 15.4363 12.001 16.7145 11.7468C17.9927 11.4925 19.3176 11.623 20.5216 12.1218C21.7256 12.6205 22.7548 13.4651 23.4788 14.5487C24.2028 15.6323 24.5893 16.9062 24.5893 18.2095C24.5903 19.0751 24.4206 19.9324 24.0899 20.7323C23.7591 21.5323 23.2738 22.2591 22.6617 22.8712C22.0496 23.4832 21.3228 23.9686 20.5229 24.2993C19.7229 24.6301 18.8656 24.7998 18 24.7988ZM24.8609 12.8818C24.5567 12.882 24.2592 12.7919 24.0062 12.623C23.7532 12.4541 23.5559 12.2139 23.4394 11.9329C23.3228 11.6519 23.2923 11.3426 23.3515 11.0442C23.4108 10.7458 23.5572 10.4717 23.7722 10.2565C23.9873 10.0413 24.2614 9.89474 24.5597 9.83533C24.8581 9.77592 25.1674 9.80634 25.4485 9.92272C25.7296 10.0391 25.9698 10.2362 26.1389 10.4892C26.3079 10.7421 26.3981 11.0395 26.3981 11.3438C26.399 11.5458 26.3599 11.746 26.2832 11.9329C26.2065 12.1198 26.0937 12.2897 25.9511 12.4329C25.8086 12.5761 25.6392 12.6898 25.4527 12.7673C25.2662 12.8449 25.0661 12.8849 24.8641 12.885L24.8609 12.8818ZM32.1429 0.209473H3.85714C2.83416 0.209473 1.85309 0.615849 1.12973 1.3392C0.406376 2.06256 0 3.04364 0 4.06662L0 32.3523C0 33.3753 0.406376 34.3564 1.12973 35.0797C1.85309 35.8031 2.83416 36.2095 3.85714 36.2095H32.1429C33.1658 36.2095 34.1469 35.8031 34.8703 35.0797C35.5936 34.3564 36 33.3753 36 32.3523V4.06662C36 3.04364 35.5936 2.06256 34.8703 1.3392C34.1469 0.615849 33.1658 0.209473 32.1429 0.209473ZM30.7671 23.513C30.6635 25.5726 30.1934 27.3975 28.6899 28.897C27.1864 30.3964 25.3631 30.8762 23.306 30.9742C21.1837 31.0939 14.8211 31.0939 12.6988 30.9742C10.6393 30.8705 8.8208 30.3997 7.31491 28.897C5.80902 27.3943 5.33571 25.5686 5.23768 23.513C5.11795 21.39 5.11795 15.0265 5.23768 12.9059C5.34134 10.8463 5.8058 9.02144 7.31491 7.52197C8.82402 6.02251 10.6473 5.5484 12.6988 5.45037C14.8211 5.33063 21.1837 5.33063 23.306 5.45037C25.3655 5.55403 27.1896 6.02492 28.6899 7.5276C30.1902 9.03028 30.6691 10.856 30.7671 12.9155C30.8869 15.0305 30.8869 21.3884 30.7671 23.513Z" fill="url(#paint0_linear_10_262)"/>
<defs>
<linearGradient id="paint0_linear_10_262" x1="35" y1="0.209474" x2="-2.44793e-06" y2="35.7095" gradientUnits="userSpaceOnUse">
<stop offset="0.0443766" stop-color="#F6A813"/>
<stop offset="0.311412" stop-color="#DC0A8B"/>
<stop offset="0.684901" stop-color="#8D15DE"/>
<stop offset="0.954081" stop-color="#371EDD"/>
</linearGradient>
</defs>
</svg>
