<svg width="36" height="37" viewBox="0 0 36 37" fill="none" xmlns="http://www.w3.org/2000/svg">
<path d="M33.4286 0.797119H2.56339C1.14911 0.797119 0 1.9623 0 3.39266V34.2016C0 35.6319 1.14911 36.7971 2.56339 36.7971H33.4286C34.8429 36.7971 36 35.6319 36 34.2016V3.39266C36 1.9623 34.8429 0.797119 33.4286 0.797119ZM10.8804 31.6543H5.54464V14.4739H10.8884V31.6543H10.8804ZM8.2125 12.1275C6.50089 12.1275 5.11875 10.7373 5.11875 9.03373C5.11875 7.33015 6.50089 5.93998 8.2125 5.93998C9.91607 5.93998 11.3062 7.33015 11.3062 9.03373C11.3062 10.7453 9.92411 12.1275 8.2125 12.1275ZM30.8812 31.6543H25.5455V23.2971C25.5455 21.3043 25.5054 18.7409 22.7732 18.7409C19.9929 18.7409 19.567 20.9105 19.567 23.1525V31.6543H14.2313V14.4739H19.35V16.8203H19.4223C20.1375 15.4703 21.8813 14.048 24.4768 14.048C29.8768 14.048 30.8812 17.6078 30.8812 22.2364V31.6543Z" fill="#126BC4"/>
</svg>
