<svg width="129" height="42" viewBox="0 0 129 42" fill="none" xmlns="http://www.w3.org/2000/svg">
<path d="M21.64 41L19.912 33.848H10.216L8.53598 41H0.375977L10.408 7.73598H19.96L29.992 41H21.64ZM11.56 28.136H18.568L15.064 13.448L11.56 28.136Z" fill="#141414"/>
<path d="M47.2165 14.696C49.4245 14.696 51.1525 15.368 52.4005 16.712C53.6485 18.056 54.2725 19.944 54.2725 22.376V41H46.6885V23.672C46.6885 22.392 46.4805 21.512 46.0645 21.032C45.6805 20.52 45.0885 20.264 44.2885 20.264C42.7525 20.264 41.2805 21.368 39.8725 23.576V41H32.2885V15.512H38.9125L39.4405 18.536C40.5285 17.256 41.6965 16.296 42.9445 15.656C44.2245 15.016 45.6485 14.696 47.2165 14.696Z" fill="#141414"/>
<path d="M82.8396 5.38398V41H76.1196L75.7356 38.024C73.9436 40.552 71.5276 41.816 68.4876 41.816C65.3196 41.816 62.9036 40.6 61.2396 38.168C59.6076 35.736 58.7916 32.408 58.7916 28.184C58.7916 25.592 59.2236 23.272 60.0876 21.224C60.9516 19.176 62.1676 17.576 63.7356 16.424C65.3356 15.272 67.1596 14.696 69.2076 14.696C71.6396 14.696 73.6556 15.496 75.2556 17.096V4.56798L82.8396 5.38398ZM70.8396 36.248C72.5996 36.248 74.0716 35.288 75.2556 33.368V22.376C74.6476 21.64 74.0236 21.096 73.3836 20.744C72.7756 20.392 72.0716 20.216 71.2716 20.216C69.8636 20.216 68.7436 20.872 67.9116 22.184C67.0796 23.496 66.6636 25.512 66.6636 28.232C66.6636 31.208 67.0156 33.288 67.7196 34.472C68.4556 35.656 69.4956 36.248 70.8396 36.248Z" fill="#141414"/>
<path d="M102.597 14.792C103.525 14.792 104.373 14.904 105.141 15.128L103.941 22.472C102.981 22.248 102.213 22.136 101.637 22.136C100.133 22.136 98.9809 22.664 98.1809 23.72C97.4129 24.744 96.8048 26.296 96.3568 28.376V41H88.7729V15.512H95.3969L96.0209 20.456C96.5969 18.696 97.4609 17.32 98.6129 16.328C99.7969 15.304 101.125 14.792 102.597 14.792Z" fill="#141414"/>
<path d="M128.809 27.752C128.809 28.808 128.761 29.72 128.665 30.488H112.873C113.129 32.632 113.737 34.136 114.697 35C115.657 35.864 116.985 36.296 118.681 36.296C119.705 36.296 120.697 36.12 121.657 35.768C122.617 35.384 123.657 34.808 124.777 34.04L127.897 38.264C124.921 40.632 121.609 41.816 117.961 41.816C113.833 41.816 110.665 40.6 108.457 38.168C106.249 35.736 105.145 32.472 105.145 28.376C105.145 25.784 105.609 23.464 106.537 21.416C107.465 19.336 108.825 17.704 110.617 16.52C112.409 15.304 114.553 14.696 117.049 14.696C120.729 14.696 123.609 15.848 125.689 18.152C127.769 20.456 128.809 23.656 128.809 27.752ZM121.369 25.592C121.305 21.688 119.929 19.736 117.241 19.736C115.929 19.736 114.905 20.216 114.169 21.176C113.465 22.136 113.033 23.72 112.873 25.928H121.369V25.592ZM120.649 0.919983L123.625 6.58398L112.297 11.144L110.185 7.25598L120.649 0.919983Z" fill="#141414"/>
</svg>
