<svg width="36" height="37" viewBox="0 0 36 37" fill="none" xmlns="http://www.w3.org/2000/svg">
<path d="M18 8.0352C12.158 8.0352 7.40893 12.7843 7.40089 18.6263C7.40089 20.6272 7.96339 22.5798 9.02411 24.2593L9.27321 24.6611L8.20446 28.5664L12.2143 27.5138L12.6 27.7468C14.2232 28.7111 16.0875 29.2254 17.992 29.2254H18C23.8339 29.2254 28.7116 24.4763 28.7116 18.6343C28.7116 15.8057 27.4902 13.1459 25.4893 11.145C23.4804 9.13609 20.8286 8.0352 18 8.0352ZM24.2277 23.1745C23.9625 23.9218 22.6929 24.5968 22.0821 24.6852C21.0696 24.8379 20.2821 24.7575 18.2652 23.8897C15.075 22.5075 12.9857 19.2932 12.825 19.0843C12.6643 18.8754 11.5232 17.3566 11.5232 15.7897C11.5232 14.2227 12.3429 13.4513 12.6402 13.1298C12.9295 12.8084 13.275 12.7281 13.492 12.7281C13.7009 12.7281 13.9179 12.7281 14.1027 12.7361C14.2955 12.7441 14.5607 12.6638 14.8179 13.2825C15.083 13.9173 15.7179 15.4843 15.7982 15.645C15.8786 15.8057 15.9348 15.9906 15.8223 16.1995C15.2116 17.4209 14.5607 17.3727 14.8902 17.9352C16.1196 20.0486 17.3491 20.7798 19.2214 21.72C19.5429 21.8807 19.7277 21.8566 19.9125 21.6397C20.0973 21.4307 20.708 20.7075 20.917 20.3941C21.1259 20.0727 21.3429 20.1289 21.6321 20.2334C21.9214 20.3379 23.4884 21.1093 23.8098 21.27C24.1312 21.4307 24.3402 21.5111 24.4205 21.6397C24.4929 21.7923 24.4929 22.4352 24.2277 23.1745ZM32.1429 0.73877H3.85714C1.72768 0.73877 0 2.46645 0 4.59591V32.8816C0 35.0111 1.72768 36.7388 3.85714 36.7388H32.1429C34.2723 36.7388 36 35.0111 36 32.8816V4.59591C36 2.46645 34.2723 0.73877 32.1429 0.73877ZM17.992 31.3709C15.8545 31.3709 13.7571 30.8325 11.9009 29.82L5.14286 31.5959L6.95089 24.9906C5.83393 23.062 5.24732 20.8682 5.24732 18.6182C5.25536 11.595 10.9687 5.88163 17.992 5.88163C21.3991 5.88163 24.5973 7.20752 27.008 9.61823C29.4107 12.0289 30.8571 15.2272 30.8571 18.6343C30.8571 25.6575 25.0152 31.3709 17.992 31.3709Z" fill="#5CF172"/>
</svg>
